<svg width="256" height="155" viewBox="0 0 256 155" fill="none" xmlns="http://www.w3.org/2000/svg">
<path d="M128 0.204834C93.867 0.204834 72.533 17.2767 64 51.4193C76.8 34.3475 91.733 27.9457 108.8 32.2139C118.537 34.6486 125.497 41.7156 133.201 49.5368C145.751 62.2794 160.275 77.0265 192 77.0265C226.133 77.0265 247.467 59.9547 256 25.8121C243.2 42.8839 228.267 49.2857 211.2 45.0175C201.463 42.5828 194.503 35.5158 186.799 27.6946C174.249 14.952 159.725 0.204834 128 0.204834ZM64 77.0265C29.867 77.0265 8.533 94.0984 0 128.241C12.8 111.169 27.733 104.767 44.8 109.036C54.537 111.47 61.497 118.537 69.201 126.358C81.751 139.101 96.275 153.848 128 153.848C162.133 153.848 183.467 136.776 192 102.634C179.2 119.706 164.267 126.107 147.2 121.839C137.463 119.404 130.503 112.338 122.799 104.516C110.249 91.7737 95.725 77.0265 64 77.0265Z" fill="url(#paint0_linear)"/>
<defs>
<linearGradient id="paint0_linear" x1="-7.11168" y1="49.3707" x2="214.017" y2="176.834" gradientUnits="userSpaceOnUse">
<stop stop-color="#2298BD"/>
<stop offset="1" stop-color="#0ED7B5"/>
</linearGradient>
</defs>
</svg>
